# Blender 3.5.1
# www.blender.org
mtllib teleport.mtl
o Cylinder
v 0.012673 -0.000756 -0.934751
v 0.207764 -0.000756 -0.915536
v 0.395357 -0.000756 -0.858630
v 0.568244 -0.000756 -0.766220
v 0.719780 -0.000756 -0.641857
v 0.844143 -0.000756 -0.490321
v 0.936553 -0.000756 -0.317434
v 0.993459 -0.000756 -0.129841
v 1.012673 -0.000756 0.065249
v 0.993459 -0.000756 0.260340
v 0.936553 -0.000756 0.447933
v 0.844143 -0.000756 0.620820
v 0.719780 -0.000756 0.772356
v 0.568244 -0.000756 0.896719
v 0.395357 -0.000756 0.989129
v 0.207764 -0.000756 1.046035
v 0.012673 -0.000756 1.065249
v -0.182417 -0.000756 1.046035
v -0.370010 -0.000756 0.989129
v -0.542897 -0.000756 0.896719
v -0.694433 -0.000756 0.772356
v -0.818796 -0.000756 0.620820
v -0.911206 -0.000756 0.447933
v -0.968112 -0.000756 0.260340
v -0.987327 -0.000756 0.065249
v -0.968112 -0.000756 -0.129841
v -0.911206 -0.000756 -0.317434
v -0.818796 -0.000756 -0.490321
v -0.694433 -0.000756 -0.641857
v -0.542897 -0.000756 -0.766220
v -0.370010 -0.000756 -0.858630
v -0.182417 -0.000756 -0.915536
vn -0.0000 1.0000 -0.0000
vt 0.493015 0.991772
vt 0.589202 0.992325
vt 0.681693 0.963996
vt 0.766933 0.917993
vt 0.841646 0.856083
vt 0.902962 0.780646
vt 0.948523 0.694580
vt 0.976580 0.601193
vt 0.986054 0.504074
vt 0.976580 0.406955
vt 0.948523 0.313568
vt 0.902962 0.227502
vt 0.841646 0.152065
vt 0.766933 0.090155
vt 0.681693 0.044152
vt 0.589202 0.015823
vt 0.493015 0.006258
vt 0.396828 0.015823
vt 0.304337 0.044152
vt 0.219098 0.090155
vt 0.144384 0.152065
vt 0.085855 0.227502
vt 0.040294 0.313568
vt 0.014467 0.406955
vt 0.004993 0.504074
vt 0.014467 0.601193
vt 0.042523 0.694580
vt 0.086413 0.780646
vt 0.144384 0.845965
vt 0.219098 0.907875
vt 0.304337 0.953878
vt 0.396828 0.982207
s 0
usemtl Material.003
f 2/2/1 1/1/1 32/32/1 31/31/1 30/30/1 29/29/1 28/28/1 27/27/1 26/26/1 25/25/1 24/24/1 23/23/1 22/22/1 21/21/1 20/20/1 19/19/1 18/18/1 17/17/1 16/16/1 15/15/1 14/14/1 13/13/1 12/12/1 11/11/1 10/10/1 9/9/1 8/8/1 7/7/1 6/6/1 5/5/1 4/4/1 3/3/1
